<svg width="45" height="45" viewBox="0 0 45 45" fill="none" xmlns="http://www.w3.org/2000/svg">
<g clip-path="url(#clip0_1_451)">
<path d="M11.6698 7.75471H10.752C9.21956 7.75471 7.97723 6.51445 7.97723 4.98458V3.49414C7.97723 3.1743 8.23687 2.9151 8.55723 2.9151H8.89504C10.4275 2.9151 11.6698 4.15536 11.6698 5.68523V7.75471Z" fill="#FEE45A"/>
<path d="M8.93323 10.3312L9.35906 11.1429C10.0701 12.4982 11.747 13.0214 13.1045 12.3116L14.427 11.62C14.7107 11.4716 14.8203 11.1217 14.6717 10.8385L14.5149 10.5396C13.8039 9.18435 12.1269 8.66116 10.7695 9.37101L8.93323 10.3312Z" fill="#FEE45A"/>
<path d="M6.75898 13.0345H5.84108C4.30866 13.0345 3.06633 11.7943 3.06633 10.2644V8.77394C3.06633 8.45411 3.32597 8.19491 3.64633 8.19491H3.98414C5.51656 8.19491 6.75889 9.43517 6.75889 10.965V13.0345H6.75898Z" fill="#FEE45A"/>
<path d="M4.00602 20.9597H3.08813C1.55571 20.9597 0.313377 19.7194 0.313377 18.1896V16.6991C0.313377 16.3793 0.573012 16.1201 0.893377 16.1201H1.23118C2.7636 16.1201 4.00593 17.3603 4.00593 18.8902L4.00602 20.9597Z" fill="#FEE45A"/>
<path d="M4.09373 22.8157L4.96482 23.1045C6.41916 23.5867 7.98971 22.8005 8.47266 21.3486L8.94313 19.9341C9.04407 19.6306 8.87951 19.3028 8.5755 19.202L8.25486 19.0958C6.80052 18.6136 5.22997 19.3998 4.74703 20.8517L4.09373 22.8157Z" fill="#FEE45A"/>
<path d="M6.29874 31.7313L7.20959 31.6182C8.73035 31.4296 9.81001 30.0459 9.62096 28.5277L9.43687 27.0486C9.39738 26.7312 9.10765 26.5059 8.78973 26.5453L8.45445 26.5869C6.93369 26.7756 5.85403 28.1593 6.04308 29.6775L6.29874 31.7313Z" fill="#FEE45A"/>
<path d="M5.00351 28.9957L4.1448 29.3193C2.71107 29.8597 1.11006 29.1375 0.568826 27.7062L0.041512 26.3118C-0.0716323 26.0127 0.0795582 25.6786 0.379318 25.5656L0.695346 25.4465C2.12908 24.9062 3.73009 25.6284 4.27132 27.0597L5.00351 28.9957Z" fill="#FEE45A"/>
<path d="M8.54363 34.9858L7.89458 35.6337C6.81095 36.7156 5.05405 36.7156 3.9705 35.6337L2.91488 34.5799C2.68841 34.3538 2.68841 33.9871 2.91488 33.761L3.15373 33.5226C4.23736 32.4407 5.99426 32.4407 7.07781 33.5226L8.54363 34.9858Z" fill="#FEE45A"/>
<path d="M14.3172 39.4513L13.8691 40.251C13.121 41.5863 11.4304 42.0633 10.0929 41.3165L8.78993 40.589C8.51032 40.4329 8.41046 40.0801 8.5668 39.801L8.73173 39.5066C9.47982 38.1714 11.1705 37.6944 12.508 38.4411L14.3172 39.4513Z" fill="#FEE45A"/>
<path d="M17.0113 40.5058L17.4702 39.7122C18.2364 38.3872 17.7817 36.693 16.4545 35.9281L15.1617 35.1828C14.8842 35.023 14.5295 35.1178 14.3694 35.3948L14.2005 35.6868C13.4342 37.0118 13.889 38.7059 15.2162 39.4709L17.0113 40.5058Z" fill="#FEE45A"/>
<path d="M33.337 7.75471H34.2548C35.7872 7.75471 37.0295 6.51445 37.0295 4.98458V3.49414C37.0295 3.1743 36.7699 2.9151 36.4495 2.9151H36.1117C34.5793 2.9151 33.337 4.15536 33.337 5.68523V7.75471Z" fill="#FEE45A"/>
<path d="M36.0714 10.3312L35.6456 11.1429C34.9345 12.4982 33.2576 13.0214 31.9001 12.3116L30.5777 11.62C30.2939 11.4716 30.1844 11.1217 30.333 10.8385L30.4897 10.5396C31.2008 9.18435 32.8777 8.66116 34.2351 9.37101L36.0714 10.3312Z" fill="#FEE45A"/>
<path d="M38.2479 13.0345H39.1657C40.6981 13.0345 41.9404 11.7943 41.9404 10.2644V8.77394C41.9404 8.45411 41.6808 8.19491 41.3604 8.19491H41.0226C39.4902 8.19491 38.2479 9.43517 38.2479 10.965V13.0345Z" fill="#FEE45A"/>
<path d="M41.0008 20.9597H41.9186C43.451 20.9597 44.6934 19.7194 44.6934 18.1896V16.6991C44.6934 16.3793 44.4337 16.1201 44.1134 16.1201H43.7756C42.2431 16.1201 41.0008 17.3603 41.0008 18.8902V20.9597Z" fill="#FEE45A"/>
<path d="M40.9135 22.8157L40.0424 23.1045C38.5881 23.5867 37.0175 22.8005 36.5346 21.3486L36.0641 19.9341C35.9632 19.6306 36.1277 19.3028 36.4317 19.202L36.7524 19.0958C38.2067 18.6136 39.7773 19.3998 40.2602 20.8517L40.9135 22.8157Z" fill="#FEE45A"/>
<path d="M38.7117 31.7322L37.8008 31.6192C36.2801 31.4306 35.2004 30.0469 35.3894 28.5286L35.5735 27.0496C35.613 26.7322 35.9028 26.5069 36.2207 26.5463L36.556 26.5879C38.0767 26.7766 39.1564 28.1603 38.9673 29.6785L38.7117 31.7322Z" fill="#FEE45A"/>
<path d="M40.0052 28.9955L40.8639 29.3191C42.2976 29.8594 43.8986 29.1372 44.4398 27.706L44.9671 26.3116C45.0803 26.0124 44.9291 25.6783 44.6293 25.5654L44.3133 25.4463C42.8796 24.906 41.2786 25.6282 40.7373 27.0594L40.0052 28.9955Z" fill="#FEE45A"/>
<path d="M36.4668 34.9858L37.1158 35.6337C38.1994 36.7156 39.9564 36.7156 41.0399 35.6337L42.0955 34.5799C42.322 34.3538 42.322 33.9871 42.0955 33.761L41.8567 33.5226C40.773 32.4407 39.0161 32.4407 37.9326 33.5226L36.4668 34.9858Z" fill="#FEE45A"/>
<path d="M30.6951 39.4513L31.1431 40.251C31.8912 41.5863 33.5819 42.0633 34.9194 41.3165L36.2223 40.589C36.5019 40.4329 36.6018 40.0801 36.4455 39.801L36.2805 39.5066C35.5325 38.1714 33.8418 37.6944 32.5043 38.4411L30.6951 39.4513Z" fill="#FEE45A"/>
<path d="M27.9997 40.5058L27.5408 39.7122C26.7746 38.3872 27.2293 36.693 28.5565 35.9281L29.8493 35.1828C30.1268 35.023 30.4815 35.1178 30.6416 35.3948L30.8105 35.6868C31.5768 37.0118 31.122 38.7059 29.7948 39.4709L27.9997 40.5058Z" fill="#FEE45A"/>
<path d="M23.6369 10.7899L25.9079 15.3839C26.0923 15.7568 26.4486 16.0153 26.8609 16.0751L31.9391 16.8118C32.9772 16.9623 33.3916 18.2359 32.6405 18.967L28.9659 22.5429C28.6676 22.8332 28.5315 23.2514 28.6019 23.6613L29.4693 28.7106C29.6466 29.7427 28.5615 30.5299 27.633 30.0425L23.0909 27.6585C22.7222 27.465 22.2817 27.465 21.913 27.6585L17.3708 30.0425C16.4424 30.5298 15.3572 29.7427 15.5345 28.7106L16.402 23.6613C16.4724 23.2514 16.3363 22.8332 16.038 22.5429L12.3633 18.967C11.6121 18.236 12.0267 16.9624 13.0648 16.8118L18.143 16.0751C18.5552 16.0153 18.9116 15.7568 19.0959 15.3839L21.367 10.7899C21.8313 9.85081 23.1726 9.85081 23.6369 10.7899Z" fill="#FED402"/>
<path d="M20.8669 25.0184C20.9373 24.6085 20.8012 24.1903 20.5029 23.9L16.8282 20.3241C16.077 19.5931 16.4916 18.3195 17.5297 18.1689L22.6079 17.4322C23.0201 17.3724 23.3765 17.1139 23.5608 16.741L25.0718 13.6846L23.6407 10.7899C23.1765 9.85081 21.8351 9.85081 21.3709 10.7899L19.0999 15.3839C18.9155 15.7568 18.5592 16.0153 18.1469 16.0751L13.0687 16.8118C12.0306 16.9623 11.6162 18.2359 12.3672 18.967L16.0419 22.5429C16.3402 22.8332 16.4763 23.2514 16.4059 23.6613L15.5384 28.7106C15.3611 29.7427 16.4463 30.5299 17.3748 30.0425L20.2643 28.5259L20.8669 25.0184Z" fill="#FAC600"/>
<path d="M22.4949 42.0105C11.9197 42.0105 3.31607 33.4212 3.31607 22.8636C3.31607 18.9055 4.51584 15.1068 6.78559 11.8782C9.00402 8.72264 12.0767 6.33234 15.6714 4.96559C16.0215 4.8326 16.4129 5.0079 16.546 5.35705C16.6792 5.7063 16.5036 6.09722 16.1539 6.23021C12.8132 7.50033 9.95743 9.72219 7.89517 12.6555C5.78636 15.6552 4.67173 19.1851 4.67173 22.8635C4.67173 32.6749 12.6672 40.6571 22.4949 40.6571C32.3227 40.6571 40.3182 32.6749 40.3182 22.8635C40.3182 19.1851 39.2035 15.6553 37.0947 12.6555C35.0325 9.7221 32.1767 7.50033 28.836 6.23021C28.4862 6.09722 28.3107 5.7063 28.4439 5.35705C28.5771 5.00781 28.9687 4.83251 29.3185 4.96559C32.9132 6.33225 35.9859 8.72264 38.2043 11.8782C40.4741 15.1068 41.6738 18.9055 41.6738 22.8636C41.6736 33.4212 33.0701 42.0105 22.4949 42.0105Z" fill="#FED402"/>
</g>
<defs>
<clipPath id="clip0_1_451">
<rect width="44.3131" height="44.2394" fill="white" transform="scale(1.0155)"/>
</clipPath>
</defs>
</svg>
