<svg width="19" height="19" viewBox="0 0 19 19" fill="none" xmlns="http://www.w3.org/2000/svg">
<g clip-path="url(#clip0_1_252)">
<path d="M4.2877 5.83993C3.97256 5.83993 3.71714 5.58451 3.71714 5.26937V4.50718C3.71714 4.19219 3.97256 3.93663 4.2877 3.93663C4.60284 3.93663 4.85825 4.19219 4.85825 4.50718V5.26937C4.85825 5.58451 4.60284 5.83993 4.2877 5.83993Z" fill="#062C73"/>
<path d="M4.2877 8.9638C3.97256 8.9638 3.71714 8.70838 3.71714 8.39324V7.63106C3.71714 7.31606 3.97256 7.0605 4.2877 7.0605C4.60284 7.0605 4.85825 7.31606 4.85825 7.63106V8.39324C4.85825 8.70838 4.60284 8.9638 4.2877 8.9638Z" fill="#062C73"/>
<path d="M2.95233 7.02109H2.19014C1.87515 7.02109 1.61958 6.76568 1.61958 6.45054C1.61958 6.13555 1.87515 5.88013 2.19014 5.88013H2.95233C3.26747 5.88013 3.52288 6.13555 3.52288 6.45054C3.52288 6.76568 3.26747 7.02109 2.95233 7.02109Z" fill="#062C73"/>
<path d="M6.38506 7.02109H5.62287C5.30788 7.02109 5.05231 6.76568 5.05231 6.45054C5.05231 6.13555 5.30788 5.88013 5.62287 5.88013H6.38506C6.7002 5.88013 6.95561 6.13555 6.95561 6.45054C6.95561 6.76568 6.7002 7.02109 6.38506 7.02109Z" fill="#062C73"/>
<path d="M10.6831 2.79407C10.368 2.79407 10.1126 2.53851 10.1126 2.22351V1.46133C10.1126 1.14619 10.368 0.890772 10.6831 0.890772C10.9981 0.890772 11.2537 1.14619 11.2537 1.46133V2.22351C11.2537 2.53865 10.9981 2.79407 10.6831 2.79407Z" fill="#0A4ABF"/>
<path d="M10.6831 5.91794C10.368 5.91794 10.1126 5.66238 10.1126 5.34739V4.5852C10.1126 4.27006 10.368 4.01464 10.6831 4.01464C10.9981 4.01464 11.2537 4.27006 11.2537 4.5852V5.34739C11.2537 5.66253 10.9981 5.91794 10.6831 5.91794Z" fill="#0A4ABF"/>
<path d="M9.35179 3.97489H8.5896C8.27446 3.97489 8.01904 3.71947 8.01904 3.40433C8.01904 3.0892 8.27446 2.83378 8.5896 2.83378H9.35179C9.66692 2.83378 9.92234 3.0892 9.92234 3.40433C9.92234 3.71947 9.66692 3.97489 9.35179 3.97489Z" fill="#0A4ABF"/>
<path d="M12.7805 3.97489H12.0183C11.7033 3.97489 11.4478 3.71947 11.4478 3.40433C11.4478 3.0892 11.7033 2.83378 12.0183 2.83378H12.7805C13.0956 2.83378 13.3511 3.0892 13.3511 3.40433C13.3511 3.71947 13.0956 3.97489 12.7805 3.97489Z" fill="#0A4ABF"/>
<path d="M15.4234 14.3062C15.1084 14.3062 14.8528 14.0508 14.8528 13.7357V12.9735C14.8528 12.6585 15.1084 12.4029 15.4234 12.4029C15.7385 12.4029 15.9939 12.6585 15.9939 12.9735V13.7357C15.9939 14.0508 15.7385 14.3062 15.4234 14.3062Z" fill="#0A4ABF"/>
<path d="M15.4234 17.4301C15.1084 17.4301 14.8528 17.1747 14.8528 16.8595V16.0973C14.8528 15.7823 15.1084 15.5268 15.4234 15.5268C15.7385 15.5268 15.9939 15.7823 15.9939 16.0973V16.8595C15.9939 17.1747 15.7385 17.4301 15.4234 17.4301Z" fill="#0A4ABF"/>
<path d="M14.0958 15.4873H13.3336C13.0186 15.4873 12.7632 15.2319 12.7632 14.9167C12.7632 14.6016 13.0186 14.3462 13.3336 14.3462H14.0958C14.4109 14.3462 14.6663 14.6016 14.6663 14.9167C14.6663 15.2319 14.4109 15.4873 14.0958 15.4873Z" fill="#0A4ABF"/>
<path d="M17.5206 15.4873H16.7586C16.4434 15.4873 16.188 15.2319 16.188 14.9167C16.188 14.6016 16.4434 14.3462 16.7586 14.3462H17.5206C17.8357 14.3462 18.0912 14.6016 18.0912 14.9167C18.0912 15.2319 17.8357 15.4873 17.5206 15.4873Z" fill="#0A4ABF"/>
<path d="M5.8559 18.0836C5.21736 18.0836 4.57897 17.8405 4.09278 17.3544L0.649158 13.9107C-0.216386 13.0453 -0.216386 11.637 0.649158 10.7715C1.06838 10.3523 1.62588 10.1213 2.21876 10.1213C2.81164 10.1213 3.36915 10.3521 3.78837 10.7715L5.8559 12.8389L15.2116 3.48313C16.077 2.61773 17.4853 2.61759 18.3508 3.48313C19.2164 4.34867 19.2164 5.75694 18.3508 6.62248L7.61888 17.3544C7.13284 17.8405 6.4943 18.0836 5.8559 18.0836Z" fill="#0D62FF"/>
<path d="M15.2119 3.48313L9.50025 9.19476V15.4733L18.3511 6.62234C19.2166 5.75694 19.2166 4.34867 18.3511 3.48313C17.4855 2.61759 16.0773 2.61773 15.2119 3.48313Z" fill="#0A4ABF"/>
</g>
<defs>
<clipPath id="clip0_1_252">
<rect width="18.7885" height="18.7885" fill="white" transform="scale(1.01125)"/>
</clipPath>
</defs>
</svg>
