<svg width="17" height="17" viewBox="0 0 17 17" fill="none" xmlns="http://www.w3.org/2000/svg">
<g clip-path="url(#clip0_1_422)">
<path d="M8.5 17C13.1944 17 17 13.1944 17 8.5C17 3.80558 13.1944 0 8.5 0C3.80558 0 0 3.80558 0 8.5C0 13.1944 3.80558 17 8.5 17Z" fill="#00391A"/>
<path d="M12.1505 8.08458L6.68298 5.10228C6.36832 4.93065 5.98462 5.15839 5.98462 5.51685V11.4815C5.98462 11.8399 6.36829 12.0677 6.68298 11.896L12.1505 8.91373C12.4787 8.73473 12.4787 8.26358 12.1505 8.08458Z" fill="white"/>
<path d="M10.7113 1.99486C10.6717 1.99486 10.6314 1.98872 10.5917 1.9761C10.3971 1.91401 10.1967 1.85989 9.99595 1.8153C9.78381 1.76812 9.65007 1.55798 9.69742 1.34568C9.74413 1.13354 9.95288 0.998737 10.1669 1.04701C10.3904 1.09665 10.6139 1.15708 10.8309 1.22624C11.0378 1.29235 11.1522 1.51368 11.0861 1.72077C11.0329 1.88805 10.878 1.99486 10.7113 1.99486Z" fill="#9BE8BF"/>
<path d="M14.7632 5.24583C14.628 5.24583 14.4964 5.17604 14.4232 5.05093C13.8243 4.02641 12.9656 3.17004 11.9394 2.57437C11.7516 2.46524 11.6876 2.22435 11.7968 2.03652C11.9062 1.84852 12.146 1.78411 12.3348 1.89371C13.4781 2.55761 14.4352 3.51206 15.1026 4.65372C15.2124 4.84142 15.1491 5.08244 14.9615 5.19204C14.8991 5.22863 14.8309 5.24583 14.7632 5.24583Z" fill="#9BE8BF"/>
<path d="M9.98787 14.767C5.88815 14.4309 2.56923 11.112 2.23312 7.01223C2.16678 6.20301 2.21412 5.4153 2.36078 4.66308C2.49874 3.95545 1.52566 3.58839 1.16109 4.21035C0.319421 5.64632 -0.112718 7.3513 0.0253739 9.16542C0.340372 13.3042 3.69595 16.6597 7.83465 16.9747C9.6488 17.1128 11.3537 16.6806 12.7897 15.839C13.4117 15.4744 13.0446 14.5013 12.337 14.6393C11.5848 14.786 10.7971 14.8333 9.98787 14.767Z" fill="#017235"/>
<path d="M7.23074 9.18972V5.40107L6.68295 5.10228C6.36829 4.93065 5.98462 5.15839 5.98462 5.51685V11.4815C5.98462 11.8399 6.36829 12.0677 6.68295 11.896L12.1505 8.9137C12.3152 8.82388 12.397 8.66049 12.3964 8.49736L8.0399 9.79322C7.63621 9.91328 7.23074 9.61086 7.23074 9.18972Z" fill="#E4EAF8"/>
</g>
<defs>
<clipPath id="clip0_1_422">
<rect width="16.7663" height="16.7663" fill="white" transform="scale(1.01394)"/>
</clipPath>
</defs>
</svg>
