<svg width="122" height="122" viewBox="0 0 122 122" fill="none" xmlns="http://www.w3.org/2000/svg">
<circle cx="3.54663" cy="3.54663" r="3.54651" fill="#E7EFFF"/>
<circle cx="3.54651" cy="105.686" r="3.54651" fill="#E7EFFF"/>
<circle cx="3.54651" cy="54.6163" r="3.54651" fill="#E7EFFF"/>
<circle cx="3.54651" cy="29.0814" r="3.54651" fill="#E7EFFF"/>
<circle cx="3.54651" cy="80.151" r="3.54651" fill="#E7EFFF"/>
<circle cx="3.54651" cy="16.3139" r="3.54651" fill="#E7EFFF"/>
<circle cx="3.54651" cy="118.453" r="3.54651" fill="#E7EFFF"/>
<circle cx="3.54651" cy="67.3839" r="3.54651" fill="#E7EFFF"/>
<circle cx="3.54651" cy="41.849" r="3.54651" fill="#E7EFFF"/>
<circle cx="3.54651" cy="92.9186" r="3.54651" fill="#E7EFFF"/>
<circle cx="16.3126" cy="3.54663" r="3.54651" fill="#E7EFFF"/>
<circle cx="16.3126" cy="105.686" r="3.54651" fill="#E7EFFF"/>
<circle cx="16.3126" cy="54.6164" r="3.54651" fill="#E7EFFF"/>
<circle cx="16.3126" cy="29.0814" r="3.54651" fill="#E7EFFF"/>
<circle cx="16.3126" cy="80.151" r="3.54651" fill="#E7EFFF"/>
<circle cx="16.3126" cy="16.3138" r="3.54651" fill="#E7EFFF"/>
<circle cx="16.3126" cy="118.453" r="3.54651" fill="#E7EFFF"/>
<circle cx="16.3126" cy="67.3838" r="3.54651" fill="#E7EFFF"/>
<circle cx="16.3126" cy="41.849" r="3.54651" fill="#E7EFFF"/>
<circle cx="16.3126" cy="92.9186" r="3.54651" fill="#E7EFFF"/>
<circle cx="29.0824" cy="3.54663" r="3.54651" fill="#E7EFFF"/>
<circle cx="29.0824" cy="105.686" r="3.54651" fill="#E7EFFF"/>
<circle cx="29.0824" cy="54.6164" r="3.54651" fill="#E7EFFF"/>
<circle cx="29.0824" cy="29.0814" r="3.54651" fill="#E7EFFF"/>
<circle cx="29.0824" cy="80.151" r="3.54651" fill="#E7EFFF"/>
<circle cx="29.0824" cy="16.3138" r="3.54651" fill="#E7EFFF"/>
<circle cx="29.0824" cy="118.453" r="3.54651" fill="#E7EFFF"/>
<circle cx="29.0824" cy="67.3838" r="3.54651" fill="#E7EFFF"/>
<circle cx="29.0824" cy="41.849" r="3.54651" fill="#E7EFFF"/>
<circle cx="29.0824" cy="92.9186" r="3.54651" fill="#E7EFFF"/>
<circle cx="41.8483" cy="3.54663" r="3.54651" fill="#E7EFFF"/>
<circle cx="41.8483" cy="105.686" r="3.54651" fill="#E7EFFF"/>
<circle cx="41.8483" cy="54.6164" r="3.54651" fill="#E7EFFF"/>
<circle cx="41.8483" cy="29.0814" r="3.54651" fill="#E7EFFF"/>
<circle cx="41.8483" cy="80.151" r="3.54651" fill="#E7EFFF"/>
<circle cx="41.8483" cy="16.3138" r="3.54651" fill="#E7EFFF"/>
<circle cx="41.8483" cy="118.453" r="3.54651" fill="#E7EFFF"/>
<circle cx="41.8483" cy="67.3838" r="3.54651" fill="#E7EFFF"/>
<circle cx="41.8483" cy="41.849" r="3.54651" fill="#E7EFFF"/>
<circle cx="41.8483" cy="92.9186" r="3.54651" fill="#E7EFFF"/>
<circle cx="54.6181" cy="3.54663" r="3.54651" fill="#E7EFFF"/>
<circle cx="54.6181" cy="105.686" r="3.54651" fill="#E7EFFF"/>
<circle cx="54.6181" cy="54.6164" r="3.54651" fill="#E7EFFF"/>
<circle cx="54.6181" cy="29.0814" r="3.54651" fill="#E7EFFF"/>
<circle cx="54.6181" cy="80.151" r="3.54651" fill="#E7EFFF"/>
<circle cx="54.6181" cy="16.3138" r="3.54651" fill="#E7EFFF"/>
<circle cx="54.6181" cy="118.453" r="3.54651" fill="#E7EFFF"/>
<circle cx="54.6181" cy="67.3838" r="3.54651" fill="#E7EFFF"/>
<circle cx="54.6181" cy="41.849" r="3.54651" fill="#E7EFFF"/>
<circle cx="54.6181" cy="92.9186" r="3.54651" fill="#E7EFFF"/>
<circle cx="67.3841" cy="3.54663" r="3.54651" fill="#E7EFFF"/>
<circle cx="67.3841" cy="105.686" r="3.54651" fill="#E7EFFF"/>
<circle cx="67.3841" cy="54.6164" r="3.54651" fill="#E7EFFF"/>
<circle cx="67.3841" cy="29.0814" r="3.54651" fill="#E7EFFF"/>
<circle cx="67.3841" cy="80.151" r="3.54651" fill="#E7EFFF"/>
<circle cx="67.3841" cy="16.3138" r="3.54651" fill="#E7EFFF"/>
<circle cx="67.3841" cy="118.453" r="3.54651" fill="#E7EFFF"/>
<circle cx="67.3841" cy="67.3838" r="3.54651" fill="#E7EFFF"/>
<circle cx="67.3841" cy="41.849" r="3.54651" fill="#E7EFFF"/>
<circle cx="67.3841" cy="92.9186" r="3.54651" fill="#E7EFFF"/>
<circle cx="80.15" cy="3.54663" r="3.54651" fill="#E7EFFF"/>
<circle cx="80.15" cy="105.686" r="3.54651" fill="#E7EFFF"/>
<circle cx="80.15" cy="54.6164" r="3.54651" fill="#E7EFFF"/>
<circle cx="80.15" cy="29.0814" r="3.54651" fill="#E7EFFF"/>
<circle cx="80.15" cy="80.151" r="3.54651" fill="#E7EFFF"/>
<circle cx="80.15" cy="16.3138" r="3.54651" fill="#E7EFFF"/>
<circle cx="80.15" cy="118.453" r="3.54651" fill="#E7EFFF"/>
<circle cx="80.15" cy="67.3838" r="3.54651" fill="#E7EFFF"/>
<circle cx="80.15" cy="41.849" r="3.54651" fill="#E7EFFF"/>
<circle cx="80.15" cy="92.9186" r="3.54651" fill="#E7EFFF"/>
<circle cx="92.9159" cy="3.54663" r="3.54651" fill="#E7EFFF"/>
<circle cx="92.9159" cy="105.686" r="3.54651" fill="#E7EFFF"/>
<circle cx="92.9159" cy="54.6164" r="3.54651" fill="#E7EFFF"/>
<circle cx="92.9159" cy="29.0814" r="3.54651" fill="#E7EFFF"/>
<circle cx="92.9159" cy="80.151" r="3.54651" fill="#E7EFFF"/>
<circle cx="92.9159" cy="16.3138" r="3.54651" fill="#E7EFFF"/>
<circle cx="92.9159" cy="118.453" r="3.54651" fill="#E7EFFF"/>
<circle cx="92.9159" cy="67.3838" r="3.54651" fill="#E7EFFF"/>
<circle cx="92.9159" cy="41.849" r="3.54651" fill="#E7EFFF"/>
<circle cx="92.9159" cy="92.9186" r="3.54651" fill="#E7EFFF"/>
<circle cx="105.69" cy="3.54663" r="3.54651" fill="#E7EFFF"/>
<circle cx="105.69" cy="105.686" r="3.54651" fill="#E7EFFF"/>
<circle cx="105.69" cy="54.6164" r="3.54651" fill="#E7EFFF"/>
<circle cx="105.69" cy="29.0814" r="3.54651" fill="#E7EFFF"/>
<circle cx="105.69" cy="80.151" r="3.54651" fill="#E7EFFF"/>
<circle cx="105.69" cy="16.3138" r="3.54651" fill="#E7EFFF"/>
<circle cx="105.69" cy="118.453" r="3.54651" fill="#E7EFFF"/>
<circle cx="105.69" cy="67.3838" r="3.54651" fill="#E7EFFF"/>
<circle cx="105.69" cy="41.849" r="3.54651" fill="#E7EFFF"/>
<circle cx="105.69" cy="92.9186" r="3.54651" fill="#E7EFFF"/>
<circle cx="118.452" cy="3.54651" r="3.54651" fill="#E7EFFF"/>
<circle cx="118.452" cy="105.686" r="3.54651" fill="#E7EFFF"/>
<circle cx="118.452" cy="54.6163" r="3.54651" fill="#E7EFFF"/>
<circle cx="118.452" cy="29.0814" r="3.54651" fill="#E7EFFF"/>
<circle cx="118.452" cy="80.151" r="3.54651" fill="#E7EFFF"/>
<circle cx="118.452" cy="16.3139" r="3.54651" fill="#E7EFFF"/>
<circle cx="118.452" cy="118.453" r="3.54651" fill="#E7EFFF"/>
<circle cx="118.452" cy="67.3839" r="3.54651" fill="#E7EFFF"/>
<circle cx="118.452" cy="41.849" r="3.54651" fill="#E7EFFF"/>
<circle cx="118.452" cy="92.9186" r="3.54651" fill="#E7EFFF"/>
</svg>
