<svg width="37" height="37" viewBox="0 0 37 37" fill="none" xmlns="http://www.w3.org/2000/svg">
<g clip-path="url(#clip0_1_493)">
<path d="M25.9718 10.5604L28.1918 12.7804L20.6685 20.3037L15.5964 15.2317C14.9952 14.6304 14.0239 14.6304 13.4227 15.2317L4.17268 24.4971C3.57143 25.0983 3.57143 26.0696 4.17268 26.6708C4.77393 27.2721 5.74518 27.2721 6.34643 26.6708L14.5018 18.5L19.5739 23.5721C20.1752 24.1733 21.1464 24.1733 21.7477 23.5721L30.3656 14.9696L32.5856 17.1896C33.0635 17.6675 33.896 17.3283 33.896 16.65V10.0208C33.9114 9.58917 33.5723 9.25 33.1406 9.25H26.5268C25.8331 9.25 25.4939 10.0825 25.9718 10.5604Z" fill="#018E42"/>
</g>
<defs>
<clipPath id="clip0_1_493">
<rect width="37" height="37" fill="white"/>
</clipPath>
</defs>
</svg>
