<svg width="19" height="19" viewBox="0 0 19 19" fill="none" xmlns="http://www.w3.org/2000/svg">
<g clip-path="url(#clip0_1_242)">
<path d="M9.49997 18.9999C14.7467 18.9999 18.9999 14.7467 18.9999 9.49997C18.9999 4.25328 14.7467 0 9.49997 0C4.25328 0 0 4.25328 0 9.49997C0 14.7467 4.25328 18.9999 9.49997 18.9999Z" fill="#0D62FF"/>
<path d="M13.579 9.03652L7.46822 5.70336C7.11653 5.51154 6.6877 5.76608 6.6877 6.16671V12.833C6.6877 13.2336 7.1165 13.4882 7.46822 13.2964L13.579 9.96321C13.9458 9.76315 13.9458 9.23657 13.579 9.03652Z" fill="white"/>
<path d="M11.9635 2.22946C11.9192 2.22946 11.8741 2.22259 11.8298 2.20849C11.6123 2.13909 11.3883 2.07861 11.1639 2.02877C10.9268 1.97604 10.7773 1.74117 10.8303 1.5039C10.8825 1.2668 11.1158 1.11614 11.355 1.1701C11.6047 1.22558 11.8546 1.29311 12.0971 1.37041C12.3284 1.4443 12.4562 1.69167 12.3823 1.92312C12.3229 2.11008 12.1497 2.22946 11.9635 2.22946Z" fill="#E7EFFF"/>
<path d="M16.4936 5.86281C16.3424 5.86281 16.1954 5.78481 16.1136 5.64498C15.4442 4.49994 14.4846 3.54282 13.3376 2.87708C13.1277 2.7551 13.0562 2.48587 13.1782 2.27594C13.3005 2.06583 13.5685 1.99384 13.7795 2.11634C15.0573 2.85834 16.127 3.92508 16.873 5.20104C16.9956 5.41082 16.9248 5.6802 16.7152 5.8027C16.6455 5.84359 16.5692 5.86281 16.4936 5.86281Z" fill="#E7EFFF"/>
<path d="M11.1629 16.5043C6.58086 16.1286 2.87149 12.4193 2.49583 7.83723C2.42168 6.93281 2.4746 6.05243 2.63851 5.21172C2.7927 4.42084 1.70514 4.0106 1.29768 4.70573C0.356999 6.31063 -0.125978 8.21619 0.028359 10.2437C0.380415 14.8694 4.13075 18.6197 8.75635 18.9717C10.7839 19.1261 12.6895 18.6431 14.2944 17.7024C14.9895 17.2949 14.5793 16.2074 13.7884 16.3616C12.9477 16.5255 12.0673 16.5784 11.1629 16.5043Z" fill="#083B99"/>
<path d="M8.08041 10.2717V6.03731L7.46818 5.70336C7.1165 5.51154 6.6877 5.76608 6.6877 6.16671V12.833C6.6877 13.2336 7.1165 13.4882 7.46818 13.2964L13.579 9.96317C13.763 9.86279 13.8545 9.68018 13.8538 9.49786L8.98476 10.9462C8.53359 11.0803 8.08041 10.7424 8.08041 10.2717Z" fill="#E4EAF8"/>
</g>
<defs>
<clipPath id="clip0_1_242">
<rect width="18.7885" height="18.7885" fill="white" transform="scale(1.01125)"/>
</clipPath>
</defs>
</svg>
