<svg width="25" height="25" viewBox="0 0 25 25" fill="none" xmlns="http://www.w3.org/2000/svg">
<g clip-path="url(#clip0_1_432)">
<path d="M5.64535 7.6836C5.23069 7.6836 4.89462 7.34753 4.89462 6.93287V5.92999C4.89462 5.51552 5.23069 5.17926 5.64535 5.17926C6.06001 5.17926 6.39608 5.51552 6.39608 5.92999V6.93287C6.39608 7.34753 6.06001 7.6836 5.64535 7.6836Z" fill="#E7EFFF"/>
<path d="M5.64535 11.7942C5.23069 11.7942 4.89462 11.4582 4.89462 11.0435V10.0406C4.89462 9.62616 5.23069 9.28989 5.64535 9.28989C6.06001 9.28989 6.39608 9.62616 6.39608 10.0406V11.0435C6.39608 11.4582 6.06001 11.7942 5.64535 11.7942Z" fill="#E7EFFF"/>
<path d="M3.88596 9.23739H2.88308C2.46861 9.23739 2.13235 8.90132 2.13235 8.48666C2.13235 8.07219 2.46861 7.73612 2.88308 7.73612H3.88596C4.30062 7.73612 4.63669 8.07219 4.63669 8.48666C4.63669 8.90132 4.30062 9.23739 3.88596 9.23739Z" fill="#E7EFFF"/>
<path d="M8.40106 9.23739H7.39818C6.98371 9.23739 6.64745 8.90132 6.64745 8.48666C6.64745 8.07219 6.98371 7.73612 7.39818 7.73612H8.40106C8.81572 7.73612 9.15179 8.07219 9.15179 8.48666C9.15179 8.90132 8.81572 9.23739 8.40106 9.23739Z" fill="#E7EFFF"/>
<path d="M14.0615 3.67506C13.6468 3.67506 13.3108 3.33879 13.3108 2.92433V1.92144C13.3108 1.50679 13.6468 1.17071 14.0615 1.17071C14.476 1.17071 14.8122 1.50679 14.8122 1.92144V2.92433C14.8122 3.33898 14.476 3.67506 14.0615 3.67506Z" fill="#E7EFFF"/>
<path d="M14.0615 7.78521C13.6468 7.78521 13.3108 7.44894 13.3108 7.03447V6.03159C13.3108 5.61694 13.6468 5.28086 14.0615 5.28086C14.476 5.28086 14.8122 5.61694 14.8122 6.03159V7.03447C14.8122 7.44913 14.476 7.78521 14.0615 7.78521Z" fill="#E7EFFF"/>
<path d="M12.3063 5.22794H11.3034C10.8887 5.22794 10.5526 4.89186 10.5526 4.4772C10.5526 4.06255 10.8887 3.72647 11.3034 3.72647H12.3063C12.7209 3.72647 13.057 4.06255 13.057 4.4772C13.057 4.89186 12.7209 5.22794 12.3063 5.22794Z" fill="#E7EFFF"/>
<path d="M16.8211 5.22806H15.8182C15.4038 5.22806 15.0675 4.89198 15.0675 4.47733C15.0675 4.06267 15.4038 3.72659 15.8182 3.72659H16.8211C17.2358 3.72659 17.5719 4.06267 17.5719 4.47733C17.5719 4.89198 17.2358 5.22806 16.8211 5.22806Z" fill="#E7EFFF"/>
<path d="M20.2942 18.8225C19.8798 18.8225 19.5435 18.4865 19.5435 18.0718V17.0689C19.5435 16.6545 19.8798 16.3182 20.2942 16.3182C20.7089 16.3182 21.0449 16.6545 21.0449 17.0689V18.0718C21.0449 18.4865 20.7089 18.8225 20.2942 18.8225Z" fill="#E7EFFF"/>
<path d="M20.2942 22.9322C19.8798 22.9322 19.5435 22.5961 19.5435 22.1815V21.1786C19.5435 20.7641 19.8798 20.4279 20.2942 20.4279C20.7089 20.4279 21.0449 20.7641 21.0449 21.1786V22.1815C21.0449 22.5961 20.7089 22.9322 20.2942 22.9322Z" fill="#E7EFFF"/>
<path d="M18.5464 20.3755H17.5435C17.129 20.3755 16.793 20.0395 16.793 19.6248C16.793 19.2102 17.129 18.8741 17.5435 18.8741H18.5464C18.961 18.8741 19.2971 19.2102 19.2971 19.6248C19.2971 20.0395 18.961 20.3755 18.5464 20.3755Z" fill="#E7EFFF"/>
<path d="M23.0537 20.3755H22.051C21.6363 20.3755 21.3002 20.0395 21.3002 19.6248C21.3002 19.2102 21.6363 18.8741 22.051 18.8741H23.0537C23.4683 18.8741 23.8044 19.2102 23.8044 19.6248C23.8044 20.0395 23.4683 20.3755 23.0537 20.3755Z" fill="#E7EFFF"/>
<path d="M7.70516 23.7934C6.86497 23.7934 6.02497 23.4736 5.38525 22.834L0.854157 18.3028C-0.284719 17.1641 -0.284719 15.3111 0.854157 14.1722C1.40576 13.6206 2.13933 13.3168 2.91943 13.3168C3.69954 13.3168 4.4331 13.6204 4.98471 14.1722L7.70516 16.8925L13.8603 10.7374L20.0154 4.58227C21.154 3.44358 23.007 3.44339 24.1459 4.58227C25.2848 5.72115 25.2848 7.57413 24.1459 8.71301L10.0249 22.834C9.38534 23.4736 8.54515 23.7934 7.70516 23.7934Z" fill="#017235"/>
<path d="M20.016 4.58227L12.5006 12.0976V20.3589L24.1465 8.71282C25.2854 7.57413 25.2854 5.72115 24.1465 4.58227C23.0076 3.44339 21.1547 3.44358 20.016 4.58227Z" fill="#E7EFFF"/>
</g>
<defs>
<clipPath id="clip0_1_432">
<rect width="24.9596" height="24.9596" fill="white" transform="scale(1.00162)"/>
</clipPath>
</defs>
</svg>
