<svg width="102" height="25" viewBox="0 0 102 25" fill="none" xmlns="http://www.w3.org/2000/svg">
<path d="M5.35438 11.8901C4.34448 12.9 3.84906 14.1385 3.84906 15.6057C3.84906 17.0539 4.34448 18.2734 5.35438 19.3024C6.38334 20.3313 7.60284 20.8267 9.07006 20.8267C9.62265 20.8267 10.1562 20.7505 10.6707 20.579C10.8612 20.5219 11.0708 20.4838 11.2614 20.4838C11.6425 20.4838 12.0235 20.6171 12.3856 20.8649C12.9001 21.2459 13.1668 21.7604 13.1668 22.4083C13.1668 23.342 12.7286 23.9517 11.833 24.2375C10.9565 24.5043 10.0419 24.6567 9.08912 24.6567C6.59294 24.6567 4.43976 23.7612 2.66766 21.9891C0.895573 20.217 0 18.0638 0 15.5676C0 13.0715 0.895573 10.9183 2.66766 9.14618C4.43976 7.37409 6.59294 6.47852 9.08912 6.47852C10.0419 6.47852 10.9565 6.6119 11.833 6.89772C12.7286 7.18355 13.1668 7.7933 13.1668 8.72698V8.8032C13.1668 9.45106 12.9001 9.94648 12.3856 10.3276C12.0235 10.5753 11.6615 10.7087 11.2804 10.7087C11.0899 10.7087 10.8803 10.6706 10.6707 10.6134C10.1562 10.4419 9.62265 10.3657 9.07006 10.3657C7.6219 10.3657 6.38334 10.8611 5.35438 11.8901Z" fill="#052259"/>
<path d="M30.1287 14.1005V22.7323C30.1287 23.2658 29.9381 23.7232 29.557 24.0661C29.195 24.4472 28.7567 24.6378 28.2232 24.6378H28.1851C27.6516 24.6378 27.2133 24.4472 26.8322 24.0661C26.4511 23.7041 26.2606 23.2658 26.2606 22.7323V14.1005C26.2606 13.0525 25.8985 12.176 25.1744 11.4328C24.4313 10.6897 23.5548 10.3277 22.5068 10.3277C21.4588 10.3277 20.5632 10.6897 19.8201 11.4328C19.096 12.176 18.7339 13.0525 18.7339 14.1005V22.7323C18.7339 23.2658 18.5434 23.7232 18.1623 24.0661C17.7812 24.4472 17.3429 24.6378 16.8285 24.6378H16.7903C16.2759 24.6378 15.8376 24.4472 15.4565 24.0661C15.0754 23.7041 14.8849 23.2658 14.8849 22.7323V1.90547C14.8849 1.37194 15.0754 0.933683 15.4565 0.552588C15.8376 0.190548 16.2759 0 16.7903 0H16.8285C17.3429 0 17.7812 0.190548 18.1623 0.552588C18.5434 0.933683 18.7339 1.391 18.7339 1.90547V7.39324C19.5723 6.78349 20.8109 6.45956 22.5068 6.45956C24.6028 6.45956 26.3939 7.2027 27.8802 8.70802C29.3665 10.1943 30.1287 11.9854 30.1287 14.1005Z" fill="#052259"/>
<path d="M47.8096 9.12722C46.0376 7.35513 43.8844 6.45956 41.3882 6.45956C38.892 6.45956 36.7388 7.35513 34.9667 9.12722C33.1947 10.8993 32.2991 13.0525 32.2991 15.5487C32.2991 18.0448 33.1947 20.198 34.9667 21.9701C36.7388 23.7422 38.892 24.6378 41.3882 24.6378C43.6748 24.6378 45.4088 24.009 46.6092 22.7323C46.6092 23.2658 46.7997 23.7232 47.1808 24.0661C47.5619 24.4472 48.0002 24.6378 48.5147 24.6378H48.5528C49.0673 24.6378 49.5055 24.4472 49.8866 24.0661C50.2677 23.7041 50.4583 23.2658 50.4583 22.7323V15.5487C50.4773 13.0525 49.5817 10.8993 47.8096 9.12722ZM45.0848 19.2643C44.0749 20.2742 42.8364 20.7887 41.3882 20.7887C39.94 20.7887 38.7015 20.2742 37.6725 19.2643C36.6626 18.2544 36.1481 17.0159 36.1481 15.5487C36.1481 14.1005 36.6626 12.881 37.6725 11.8521C38.6824 10.8422 39.921 10.3277 41.3882 10.3277C42.8364 10.3277 44.0559 10.8422 45.0848 11.8521C46.0947 12.881 46.6092 14.1005 46.6092 15.5487C46.6092 16.9968 46.0947 18.2354 45.0848 19.2643Z" fill="#052259"/>
<path d="M68.1789 9.12735C66.4068 7.35525 64.2536 6.45968 61.7574 6.45968C59.2613 6.45968 57.1081 7.35525 55.336 9.12735C53.5639 10.8994 52.6683 13.0526 52.6683 15.5488C52.6683 18.045 53.5639 20.1982 55.336 21.9702C57.1081 23.7423 59.2613 24.6379 61.7574 24.6379C64.044 24.6379 65.778 24.0091 66.9784 22.7324C66.9784 23.266 67.169 23.7233 67.5501 24.0663C67.9312 24.4474 68.3694 24.6379 68.8839 24.6379H68.922C69.4365 24.6379 69.8748 24.4474 70.2559 24.0663C70.637 23.7042 70.8275 23.266 70.8275 22.7324V15.5488C70.8275 13.0526 69.951 10.8994 68.1789 9.12735ZM65.435 19.2645C64.4251 20.2744 63.1866 20.7888 61.7384 20.7888C60.2902 20.7888 59.0517 20.2744 58.0418 19.2645C57.0319 18.2546 56.5174 17.016 56.5174 15.5488C56.5174 14.1006 57.0128 12.8811 58.0418 11.8522C59.0517 10.8423 60.2902 10.3278 61.7384 10.3278C63.1866 10.3278 64.4061 10.8423 65.435 11.8522C66.464 12.8811 66.9594 14.1006 66.9594 15.5488C66.9784 16.997 66.464 18.2355 65.435 19.2645Z" fill="#052259"/>
<path d="M88.529 9.12722C86.7569 7.35513 84.6037 6.45956 82.1076 6.45956C79.821 6.45956 78.068 6.99309 76.8866 8.0411V1.90547C76.8866 1.37194 76.696 0.933683 76.3149 0.552588C75.9338 0.190548 75.4956 0 74.9811 0H74.943C74.4285 0 73.9712 0.190548 73.6092 0.552588C73.2281 0.933683 73.0375 1.391 73.0375 1.90547V15.6058C73.0375 18.102 73.9521 20.2361 75.7242 21.9892C77.4963 23.7613 79.6305 24.6378 82.1266 24.6378C84.6228 24.6378 86.776 23.7422 88.5481 21.9701C90.3202 20.198 91.2157 18.0448 91.2157 15.5487C91.1967 13.0525 90.3011 10.8993 88.529 9.12722ZM85.8042 19.2834C84.7752 20.3124 83.5557 20.8078 82.1076 20.8078C80.6594 20.8078 79.4209 20.2933 78.3919 19.2834C77.382 18.2544 76.8675 17.0349 76.8675 15.5868C76.8675 14.1386 77.382 12.9001 78.3919 11.8711C79.4209 10.8422 80.6404 10.3467 82.1076 10.3467C83.5557 10.3467 84.7752 10.8612 85.8042 11.8711C86.8141 12.881 87.3286 14.1196 87.3286 15.5868C87.3286 17.0349 86.8141 18.2735 85.8042 19.2834Z" fill="#052259"/>
<path d="M98.7224 24.6568H95.8071C94.1112 24.6568 92.8726 23.0753 93.2918 21.4366L94.74 12.7095C95.0258 11.5472 96.0738 10.7278 97.2552 10.7278C98.4557 10.7278 99.4846 11.5472 99.7704 12.7095L101.219 21.4366C101.638 23.0753 100.399 24.6568 98.7224 24.6568Z" fill="#052259"/>
<path d="M97.253 9.67986C99.8734 9.67986 101.998 7.55561 101.998 4.93522C101.998 2.31484 99.8734 0.190592 97.253 0.190592C94.6327 0.190592 92.5084 2.31484 92.5084 4.93522C92.5084 7.55561 94.6327 9.67986 97.253 9.67986Z" fill="#0D62FF"/>
</svg>
